<svg xmlns="http://www.w3.org/2000/svg" version="1.1" xmlns:xlink="http://www.w3.org/1999/xlink" xmlns:svgjs="http://svgjs.dev/svgjs" width="1000" height="776" viewBox="0 0 1000 776"><g transform="matrix(1,0,0,1,0.317736576672246,0.31417004048580566)"><svg viewBox="0 0 318 247" data-background-color="#ffffff" preserveAspectRatio="xMidYMid meet" height="776" width="1000" xmlns="http://www.w3.org/2000/svg" xmlns:xlink="http://www.w3.org/1999/xlink"><g id="tight-bounds" transform="matrix(1,0,0,1,-0.10104018631841427,-0.09999999999999432)"><svg viewBox="0 0 318.2020677729223 247.2" height="247.2" width="318.2020677729223"><g><svg viewBox="0 0 395.52 307.2655834209511" height="247.2" width="318.2020677729223"><g transform="matrix(1,0,0,1,0,224.4471400502272)"><svg viewBox="0 0 395.52 82.81844337072386" height="82.81844337072386" width="395.52"><g id="textblocktransform"><svg viewBox="0 0 395.52 82.81844337072386" height="82.81844337072386" width="395.52" id="textblock"><g><svg viewBox="0 0 395.52 44.66831099195711" height="44.66831099195711" width="395.52"><g transform="matrix(1,0,0,1,0,0)"><svg width="395.52" viewBox="1.7999999523162842 -33.70000076293945 298.3800048828125 33.70000076293945" height="44.66831099195711" data-palette-color="#081143"><path d="M18.9-10.65L15.75 0 10.6 0 1.8-33.7 6.05-33.7 9.2-21.2 13.35-4.25Q16.15-14.5 18.1-21.2L18.1-21.2 21.6-33.2 25.65-33.2 29.35-21.2 34.45-4.1Q36.75-15.15 38.15-21.15L38.15-21.15 41-33.7 45.1-33.7 37.2 0 32 0 28.75-10.65 23.7-27.5Q22.15-21.6 18.9-10.65L18.9-10.65ZM69.55-3.55L69.55 0 50.75 0 50.75-33.7 69.3-33.7 69.3-30.15 54.8-30.15 54.8-18.6 67.6-18.6 67.6-15.05 54.8-15.05 54.8-3.55 69.55-3.55ZM88.1 0L88.1 0 75.8 0 75.8-33.7 85.95-33.7Q91.15-33.7 94.27-31.3 97.4-28.9 97.4-24.85L97.4-24.85Q97.4-21.95 95.77-19.83 94.15-17.7 91.6-17.15L91.6-17.15Q94.4-16.7 96.37-14.63 98.35-12.55 98.35-9L98.35-9Q98.35-4.95 95.67-2.48 93 0 88.1 0ZM85.95-30.25L85.95-30.25 79.85-30.25 79.85-18.75 85.25-18.75Q89.3-18.75 91.25-20.45 93.2-22.15 93.2-24.85L93.2-24.85Q93.2-27.2 91.37-28.73 89.55-30.25 85.95-30.25ZM86.75-15.3L86.75-15.3 79.85-15.3 79.85-3.45 87.5-3.45Q90.7-3.45 92.42-4.93 94.15-6.4 94.15-9.25 94.15-12.1 92.22-13.7 90.3-15.3 86.75-15.3ZM131.59-10.65L128.44 0 123.29 0 114.49-33.7 118.74-33.7 121.89-21.2 126.04-4.25Q128.84-14.5 130.79-21.2L130.79-21.2 134.29-33.2 138.34-33.2 142.04-21.2 147.14-4.1Q149.44-15.15 150.84-21.15L150.84-21.15 153.69-33.7 157.79-33.7 149.89 0 144.69 0 141.44-10.65 136.39-27.5Q134.84-21.6 131.59-10.65L131.59-10.65ZM182.24-3.55L182.24 0 163.44 0 163.44-33.7 181.99-33.7 181.99-30.15 167.49-30.15 167.49-18.6 180.29-18.6 180.29-15.05 167.49-15.05 167.49-3.55 182.24-3.55ZM195.54-14.2L195.54-14.2 194.89-12.3 206.84-12.3 206.19-14.25 200.94-30.45Q200.34-28.3 195.54-14.2ZM193.74-8.85L190.74 0 186.39 0 198.14-33.7 203.74-33.7 215.29 0 210.94 0 207.99-8.85 193.74-8.85ZM247.08-33.7L235.33 0 230.23 0 218.83-33.7 223.18-33.7 227.58-20.35 232.83-3.65Q234.78-9.95 238.23-20.35L238.23-20.35 242.73-33.7 247.08-33.7ZM271.53-3.55L271.53 0 252.73 0 252.73-33.7 271.28-33.7 271.28-30.15 256.78-30.15 256.78-18.6 269.58-18.6 269.58-15.05 256.78-15.05 256.78-3.55 271.53-3.55ZM286.48-30.2L286.48-30.2 281.83-30.2 281.83-16.75 286.93-16.75Q290.38-16.75 292.2-18.63 294.03-20.5 294.03-23.45L294.03-23.45Q294.03-30.2 286.48-30.2ZM287.08-13.3L286.68-13.3 281.83-13.3 281.83 0 277.78 0 277.78-33.7 286.23-33.7Q292.08-33.7 295.1-30.95 298.13-28.2 298.13-23.35L298.13-23.35Q298.03-19.85 296.28-17.4 294.53-14.95 291.33-13.95L291.33-13.95 300.18 0 295.33 0 287.08-13.3Z" opacity="1" transform="matrix(1,0,0,1,0,0)" fill="#081143" class="wordmark-text-0" data-fill-palette-color="primary" id="text-0"></path></svg></g></svg></g><g transform="matrix(1,0,0,1,0,55.21342717769437)"><svg viewBox="0 0 395.52 27.605016193029492" height="27.605016193029492" width="395.52"><g transform="matrix(1,0,0,1,0,0)"><svg width="395.52" viewBox="4.150000095367432 -37 673.4099731445312 47" height="27.605016193029492" data-palette-color="#081143"><path d="M23-24.95L23-24.95Q23.45-24.95 23.73-24.65 24-24.35 24-23.95L24-23.95 24-9.4Q24-4.55 21.28-2.13 18.55 0.3 14.05 0.3L14.05 0.3Q9.6 0.3 6.88-2.13 4.15-4.55 4.15-9.4L4.15-9.4 4.15-23.95Q4.15-24.35 4.45-24.65 4.75-24.95 5.15-24.95L5.15-24.95Q5.6-24.95 5.88-24.65 6.15-24.35 6.15-23.95L6.15-23.95 6.15-9.4Q6.15-5.6 8.28-3.6 10.4-1.6 14.05-1.6L14.05-1.6Q17.75-1.6 19.88-3.6 22-5.6 22-9.4L22-9.4 22-23.95Q22-24.35 22.28-24.65 22.55-24.95 23-24.95ZM55.04-4L55.04-4Q54.69-4.6 54.71-4.98 54.74-5.35 55.09-5.6L55.09-5.6Q55.34-5.85 55.76-5.83 56.19-5.8 56.49-5.45L56.49-5.45Q57.79-3.6 59.81-2.45 61.84-1.3 64.59-1.3L64.59-1.3Q66.24-1.3 67.76-1.85 69.29-2.4 70.26-3.5 71.24-4.6 71.24-6.2L71.24-6.2Q71.24-7.9 70.29-8.93 69.34-9.95 67.84-10.55 66.34-11.15 64.69-11.55L64.69-11.55Q62.94-12 61.36-12.58 59.79-13.15 58.59-14.03 57.39-14.9 56.69-16.1 55.99-17.3 55.99-18.95L55.99-18.95Q55.99-20.9 57.04-22.45 58.09-24 59.99-24.88 61.89-25.75 64.39-25.75L64.39-25.75Q65.59-25.75 66.94-25.45 68.29-25.15 69.64-24.43 70.99-23.7 72.14-22.4L72.14-22.4Q72.54-22.1 72.51-21.68 72.49-21.25 72.14-20.9L72.14-20.9Q71.84-20.7 71.49-20.7 71.14-20.7 70.89-21L70.89-21Q69.59-22.45 67.86-23.15 66.14-23.85 64.19-23.85L64.19-23.85Q62.54-23.85 61.11-23.3 59.69-22.75 58.79-21.68 57.89-20.6 57.89-18.95L57.89-18.95Q57.99-17.4 58.96-16.4 59.94-15.4 61.56-14.75 63.19-14.1 65.24-13.55L65.24-13.55Q66.89-13.15 68.31-12.63 69.74-12.1 70.81-11.3 71.89-10.5 72.51-9.3 73.14-8.1 73.14-6.3L73.14-6.3Q73.14-4.2 72.01-2.68 70.89-1.15 68.91-0.33 66.94 0.5 64.39 0.5L64.39 0.5Q61.79 0.5 59.39-0.55 56.99-1.6 55.04-4ZM114.88 0.5L114.88 0.5Q111.13 0.5 108.25-1.1 105.38-2.7 103.73-5.63 102.08-8.55 102.08-12.5L102.08-12.5Q102.08-16.7 103.7-19.65 105.33-22.6 107.9-24.18 110.48-25.75 113.38-25.75L113.38-25.75Q115.48-25.75 117.48-25.08 119.48-24.4 121.05-22.98 122.63-21.55 123.6-19.43 124.58-17.3 124.68-14.35L124.68-14.35Q124.68-13.95 124.38-13.63 124.08-13.3 123.68-13.3L123.68-13.3 103.28-13.3 102.98-15.2 123.13-15.2 122.63-14.75 122.63-15.65Q122.38-18.3 120.95-20.1 119.53-21.9 117.53-22.83 115.53-23.75 113.38-23.75L113.38-23.75Q111.88-23.75 110.23-23.08 108.58-22.4 107.18-21.03 105.78-19.65 104.9-17.55 104.03-15.45 104.03-12.65L104.03-12.65Q104.03-9.6 105.25-7.05 106.48-4.5 108.9-2.95 111.33-1.4 114.88-1.4L114.88-1.4Q116.58-1.4 118.08-1.98 119.58-2.55 120.78-3.5 121.98-4.45 122.73-5.55L122.73-5.55Q123.13-6 123.58-6L123.58-6Q123.93-6 124.18-5.73 124.43-5.45 124.43-5.1L124.43-5.1Q124.43-4.75 124.23-4.5L124.23-4.5Q122.68-2.5 120.25-1 117.83 0.5 114.88 0.5ZM203.66-25.25L203.66-25.25Q206.46-25.25 208.78-23.73 211.11-22.2 211.96-18.95L211.96-18.95 211.31-18.5 211.56-19.45Q212.21-21.1 213.83-22.4 215.46-23.7 217.48-24.48 219.51-25.25 221.41-25.25L221.41-25.25Q224.41-25.25 226.36-23.95 228.31-22.65 229.23-20.48 230.16-18.3 230.16-15.55L230.16-15.55 230.16-1Q230.16-0.6 229.88-0.3 229.61 0 229.16 0L229.16 0Q228.71 0 228.43-0.3 228.16-0.6 228.16-1L228.16-1 228.16-15.35Q228.16-17.55 227.43-19.38 226.71-21.2 225.18-22.28 223.66-23.35 221.21-23.35L221.21-23.35Q219.06-23.35 217.01-22.28 214.96-21.2 213.63-19.38 212.31-17.55 212.31-15.35L212.31-15.35 212.31-1Q212.31-0.6 212.03-0.3 211.76 0 211.31 0L211.31 0Q210.86 0 210.58-0.3 210.31-0.6 210.31-1L210.31-1 210.31-15.6Q210.31-17.75 209.63-19.5 208.96-21.25 207.51-22.3 206.06-23.35 203.66-23.35L203.66-23.35Q201.56-23.35 199.58-22.3 197.61-21.25 196.31-19.5 195.01-17.75 195.01-15.6L195.01-15.6 195.01-1Q195.01-0.6 194.71-0.3 194.41 0 194.01 0L194.01 0Q193.56 0 193.28-0.3 193.01-0.6 193.01-1L193.01-1 193.01-23.95Q193.01-24.35 193.31-24.65 193.61-24.95 194.01-24.95L194.01-24.95Q194.46-24.95 194.73-24.65 195.01-24.35 195.01-23.95L195.01-23.95 195.01-18.5 193.51-15.95Q193.51-17.7 194.36-19.35 195.21-21 196.63-22.33 198.06-23.65 199.88-24.45 201.71-25.25 203.66-25.25ZM273.65 0.5L273.65 0.5Q269.9 0.5 267.02-1.1 264.15-2.7 262.5-5.63 260.85-8.55 260.85-12.5L260.85-12.5Q260.85-16.7 262.47-19.65 264.1-22.6 266.67-24.18 269.25-25.75 272.15-25.75L272.15-25.75Q274.25-25.75 276.25-25.08 278.25-24.4 279.82-22.98 281.4-21.55 282.37-19.43 283.35-17.3 283.45-14.35L283.45-14.35Q283.45-13.95 283.15-13.63 282.85-13.3 282.45-13.3L282.45-13.3 262.05-13.3 261.75-15.2 281.9-15.2 281.4-14.75 281.4-15.65Q281.15-18.3 279.72-20.1 278.3-21.9 276.3-22.83 274.3-23.75 272.15-23.75L272.15-23.75Q270.65-23.75 269-23.08 267.35-22.4 265.95-21.03 264.55-19.65 263.67-17.55 262.8-15.45 262.8-12.65L262.8-12.65Q262.8-9.6 264.02-7.05 265.25-4.5 267.67-2.95 270.1-1.4 273.65-1.4L273.65-1.4Q275.35-1.4 276.85-1.98 278.35-2.55 279.55-3.5 280.75-4.45 281.5-5.55L281.5-5.55Q281.9-6 282.35-6L282.35-6Q282.7-6 282.95-5.73 283.2-5.45 283.2-5.1L283.2-5.1Q283.2-4.75 283-4.5L283-4.5Q281.45-2.5 279.02-1 276.6 0.5 273.65 0.5ZM349.48-25.15L349.48-25.15 361.08-25.15Q361.48-25.15 361.75-24.85 362.03-24.55 362.03-24.2L362.03-24.2Q362.03-23.8 361.75-23.53 361.48-23.25 361.08-23.25L361.08-23.25 349.48-23.25Q349.13-23.25 348.83-23.55 348.53-23.85 348.53-24.2L348.53-24.2Q348.53-24.6 348.83-24.88 349.13-25.15 349.48-25.15ZM354.58-32.5L354.58-32.5Q355.03-32.5 355.3-32.2 355.58-31.9 355.58-31.5L355.58-31.5 355.58-5.45Q355.58-3.8 356-3.03 356.43-2.25 357.08-2.02 357.73-1.8 358.33-1.8L358.33-1.8Q358.68-1.8 358.93-1.9 359.18-2 359.53-2L359.53-2Q359.88-2 360.13-1.73 360.38-1.45 360.38-1.1L360.38-1.1Q360.38-0.65 359.8-0.33 359.23 0 358.38 0L358.38 0Q358.08 0 357.3-0.03 356.53-0.05 355.65-0.48 354.78-0.9 354.18-2.02 353.58-3.15 353.58-5.35L353.58-5.35 353.58-31.5Q353.58-31.9 353.88-32.2 354.18-32.5 354.58-32.5ZM414.37-12.6L414.37-12.6Q414.37-8.9 412.77-5.93 411.17-2.95 408.39-1.23 405.62 0.5 402.07 0.5L402.07 0.5Q398.57 0.5 395.77-1.23 392.97-2.95 391.34-5.93 389.72-8.9 389.72-12.6L389.72-12.6Q389.72-16.35 391.34-19.33 392.97-22.3 395.77-24.03 398.57-25.75 402.07-25.75L402.07-25.75Q405.62-25.75 408.39-24.03 411.17-22.3 412.77-19.33 414.37-16.35 414.37-12.6ZM412.37-12.6L412.37-12.6Q412.37-15.85 411.04-18.38 409.72-20.9 407.39-22.38 405.07-23.85 402.07-23.85L402.07-23.85Q399.12-23.85 396.77-22.38 394.42-20.9 393.07-18.38 391.72-15.85 391.72-12.6L391.72-12.6Q391.72-9.4 393.07-6.88 394.42-4.35 396.77-2.88 399.12-1.4 402.07-1.4L402.07-1.4Q405.07-1.4 407.39-2.88 409.72-4.35 411.04-6.88 412.37-9.4 412.37-12.6ZM481.3-4L481.3-4Q480.95-4.6 480.97-4.98 481-5.35 481.35-5.6L481.35-5.6Q481.6-5.85 482.02-5.83 482.45-5.8 482.75-5.45L482.75-5.45Q484.05-3.6 486.07-2.45 488.1-1.3 490.85-1.3L490.85-1.3Q492.5-1.3 494.02-1.85 495.55-2.4 496.52-3.5 497.5-4.6 497.5-6.2L497.5-6.2Q497.5-7.9 496.55-8.93 495.6-9.95 494.1-10.55 492.6-11.15 490.95-11.55L490.95-11.55Q489.2-12 487.62-12.58 486.05-13.15 484.85-14.03 483.65-14.9 482.95-16.1 482.25-17.3 482.25-18.95L482.25-18.95Q482.25-20.9 483.3-22.45 484.35-24 486.25-24.88 488.15-25.75 490.65-25.75L490.65-25.75Q491.85-25.75 493.2-25.45 494.55-25.15 495.9-24.43 497.25-23.7 498.4-22.4L498.4-22.4Q498.8-22.1 498.77-21.68 498.75-21.25 498.4-20.9L498.4-20.9Q498.1-20.7 497.75-20.7 497.4-20.7 497.15-21L497.15-21Q495.85-22.45 494.12-23.15 492.4-23.85 490.45-23.85L490.45-23.85Q488.8-23.85 487.37-23.3 485.95-22.75 485.05-21.68 484.15-20.6 484.15-18.95L484.15-18.95Q484.25-17.4 485.22-16.4 486.2-15.4 487.82-14.75 489.45-14.1 491.5-13.55L491.5-13.55Q493.15-13.15 494.57-12.63 496-12.1 497.07-11.3 498.15-10.5 498.77-9.3 499.4-8.1 499.4-6.3L499.4-6.3Q499.4-4.2 498.27-2.68 497.15-1.15 495.17-0.33 493.2 0.5 490.65 0.5L490.65 0.5Q488.05 0.5 485.65-0.55 483.25-1.6 481.3-4ZM527.79-25.15L527.79-25.15 539.39-25.15Q539.79-25.15 540.06-24.85 540.34-24.55 540.34-24.2L540.34-24.2Q540.34-23.8 540.06-23.53 539.79-23.25 539.39-23.25L539.39-23.25 527.79-23.25Q527.44-23.25 527.14-23.55 526.84-23.85 526.84-24.2L526.84-24.2Q526.84-24.6 527.14-24.88 527.44-25.15 527.79-25.15ZM532.89-32.5L532.89-32.5Q533.34-32.5 533.61-32.2 533.89-31.9 533.89-31.5L533.89-31.5 533.89-5.45Q533.89-3.8 534.31-3.03 534.74-2.25 535.39-2.02 536.04-1.8 536.64-1.8L536.64-1.8Q536.99-1.8 537.24-1.9 537.49-2 537.84-2L537.84-2Q538.19-2 538.44-1.73 538.69-1.45 538.69-1.1L538.69-1.1Q538.69-0.65 538.11-0.33 537.54 0 536.69 0L536.69 0Q536.39 0 535.61-0.03 534.84-0.05 533.96-0.48 533.09-0.9 532.49-2.02 531.89-3.15 531.89-5.35L531.89-5.35 531.89-31.5Q531.89-31.9 532.19-32.2 532.49-32.5 532.89-32.5ZM588.83-25.75L588.83-25.75Q589.28-25.75 589.55-25.45 589.83-25.15 589.83-24.75L589.83-24.75 589.83-2.45Q589.83 1.4 588.28 4.2 586.73 7 584.08 8.5 581.43 10 578.03 10L578.03 10Q575.73 10 573.9 9.45 572.08 8.9 570.93 8.1L570.93 8.1Q570.58 7.85 570.38 7.5 570.18 7.15 570.38 6.75L570.38 6.75Q570.58 6.35 570.95 6.2 571.33 6.05 571.68 6.3L571.68 6.3Q572.53 6.8 574.25 7.5 575.98 8.2 578.13 8.2L578.13 8.2Q581.03 8.2 583.2 6.85 585.38 5.5 586.6 3.1 587.83 0.7 587.83-2.45L587.83-2.45 587.83-6.15 587.93-4.9Q587.23-3.4 585.8-2.18 584.38-0.95 582.6-0.23 580.83 0.5 578.93 0.5L578.93 0.5Q575.83 0.5 573.85-0.73 571.88-1.95 570.95-4.1 570.03-6.25 570.03-9.15L570.03-9.15 570.03-24.75Q570.03-25.15 570.3-25.45 570.58-25.75 571.03-25.75L571.03-25.75Q571.48-25.75 571.75-25.45 572.03-25.15 572.03-24.75L572.03-24.75 572.03-9.15Q572.03-5.6 573.6-3.5 575.18-1.4 578.93-1.4L578.93-1.4Q581.18-1.4 583.2-2.53 585.23-3.65 586.53-5.45 587.83-7.25 587.83-9.15L587.83-9.15 587.83-24.75Q587.83-25.15 588.1-25.45 588.38-25.75 588.83-25.75ZM624.52-36L624.52-1Q624.52-0.6 624.22-0.3 623.92 0 623.52 0L623.52 0Q623.07 0 622.79-0.3 622.52-0.6 622.52-1L622.52-1 622.52-36Q622.52-36.4 622.82-36.7 623.12-37 623.52-37L623.52-37Q623.97-37 624.24-36.7 624.52-36.4 624.52-36L624.52-36ZM667.76 0.5L667.76 0.5Q664.01 0.5 661.13-1.1 658.26-2.7 656.61-5.63 654.96-8.55 654.96-12.5L654.96-12.5Q654.96-16.7 656.58-19.65 658.21-22.6 660.78-24.18 663.36-25.75 666.26-25.75L666.26-25.75Q668.36-25.75 670.36-25.08 672.36-24.4 673.93-22.98 675.51-21.55 676.48-19.43 677.46-17.3 677.56-14.35L677.56-14.35Q677.56-13.95 677.26-13.63 676.96-13.3 676.56-13.3L676.56-13.3 656.16-13.3 655.86-15.2 676.01-15.2 675.51-14.75 675.51-15.65Q675.26-18.3 673.83-20.1 672.41-21.9 670.41-22.83 668.41-23.75 666.26-23.75L666.26-23.75Q664.76-23.75 663.11-23.08 661.46-22.4 660.06-21.03 658.66-19.65 657.78-17.55 656.91-15.45 656.91-12.65L656.91-12.65Q656.91-9.6 658.13-7.05 659.36-4.5 661.78-2.95 664.21-1.4 667.76-1.4L667.76-1.4Q669.46-1.4 670.96-1.98 672.46-2.55 673.66-3.5 674.86-4.45 675.61-5.55L675.61-5.55Q676.01-6 676.46-6L676.46-6Q676.81-6 677.06-5.73 677.31-5.45 677.31-5.1L677.31-5.1Q677.31-4.75 677.11-4.5L677.11-4.5Q675.56-2.5 673.13-1 670.71 0.5 667.76 0.5Z" opacity="1" transform="matrix(1,0,0,1,0,0)" fill="#081143" class="slogan-text-1" data-fill-palette-color="secondary" id="text-1"></path></svg></g></svg></g></svg></g></svg></g><g transform="matrix(1,0,0,1,96.08154616062366,0)"><svg viewBox="0 0 203.35690767875266 203.35690767875266" height="203.35690767875266" width="203.35690767875266"><g><svg></svg></g><g id="icon-0"><svg viewBox="0 0 203.35690767875266 203.35690767875266" height="203.35690767875266" width="203.35690767875266"><g><path d="M0 101.678c0-56.155 45.523-101.678 101.678-101.678 56.155 0 101.678 45.523 101.679 101.678 0 56.155-45.523 101.678-101.679 101.679-56.155 0-101.678-45.523-101.678-101.679zM101.678 199.329c53.931 0 97.65-43.719 97.651-97.651 0-53.931-43.719-97.65-97.651-97.65-53.931 0-97.65 43.719-97.65 97.65 0 53.931 43.719 97.65 97.65 97.651z" data-fill-palette-color="accent" fill="#081143" stroke="transparent"></path><ellipse rx="100.66166930098257" ry="100.66166930098257" cx="101.67845383937633" cy="101.67845383937633" fill="#081143" stroke="transparent" stroke-width="0" fill-opacity="1" data-fill-palette-color="accent"></ellipse></g><g transform="matrix(1,0,0,1,49.52931806187497,41.27127508691641)"><svg viewBox="0 0 104.29827155500273 120.81435750491984" height="120.81435750491984" width="104.29827155500273"><g><svg xmlns="http://www.w3.org/2000/svg" xmlns:xlink="http://www.w3.org/1999/xlink" version="1.1" x="0" y="0" viewBox="9.63800048828125 3.246999979019165 80.7239990234375 93.50699615478516" enable-background="new 0 0 100 100" xml:space="preserve" height="120.81435750491984" width="104.29827155500273" class="icon-s-0" data-fill-palette-color="quaternary" id="s-0"><g fill="#ffffff" data-fill-palette-color="quaternary"><g fill="#ffffff" data-fill-palette-color="quaternary"><polygon points="36.703,11.011 9.638,26.636 9.638,38.757 36.703,23.131 63.767,38.757 63.767,26.636   " fill="#ffffff" data-fill-palette-color="quaternary"></polygon></g><g fill="#ffffff" data-fill-palette-color="quaternary"><polygon points="63.298,89.092 36.233,73.467 36.233,61.348 63.298,76.973 90.362,61.348 90.362,73.467   " fill="#ffffff" data-fill-palette-color="quaternary"></polygon></g><g fill="#ffffff" data-fill-palette-color="quaternary"><polygon points="9.638,42.012 36.703,26.386 47.198,32.446 20.134,48.072 20.134,79.324 9.638,73.264   " fill="#ffffff" data-fill-palette-color="quaternary"></polygon></g><g fill="#ffffff" data-fill-palette-color="quaternary"><polygon points="77.083,18.872 50.018,3.247 39.522,9.307 66.586,24.932 66.586,56.184 77.083,50.124   " fill="#ffffff" data-fill-palette-color="quaternary"></polygon></g><g fill="#ffffff" data-fill-palette-color="quaternary"><polygon points="23.01,81.127 23.011,49.876 33.507,43.816 33.507,75.068 60.571,90.693 50.075,96.754   " fill="#ffffff" data-fill-palette-color="quaternary"></polygon></g><g fill="#ffffff" data-fill-palette-color="quaternary"><polygon points="90.362,58.092 90.362,26.84 79.866,20.78 79.866,52.031 52.802,67.658 63.298,73.719   " fill="#ffffff" data-fill-palette-color="quaternary"></polygon></g></g></svg></g></svg></g></svg></g></svg></g><g></g></svg></g><defs></defs></svg><rect width="318.2020677729223" height="247.2" fill="none" stroke="none" visibility="hidden"></rect></g></svg></g></svg>